<?xml version="1.0" encoding="UTF-8"?>
<svg id="Layer_2" data-name="Layer 2" xmlns="http://www.w3.org/2000/svg" viewBox="0 0 623.88 97.24">
  <defs>
    <style>
      .cls-1 {
        fill: #7e3dd4;
        stroke-width: 0px;
      }
    </style>
  </defs>
  <g id="logo">
    <g>
      <path class="cls-1" d="m46.2,95.58c-.57,0-1.03-.46-1.03-1.03v-37.79c0-8.15-4.28-10.77-11.05-10.77-4.56,0-8,1.86-10.49,4.04-1.49,1.31-2.35,3.2-2.35,5.18v39.33c0,.57-.46,1.03-1.03,1.03H1.03c-.57,0-1.03-.46-1.03-1.03V1.03C0,.46.46,0,1.03,0h19.21c.57,0,1.03.46,1.03,1.03v33.4c0,.9,1.08,1.38,1.73.76,4.35-4.11,11.58-7.99,21.34-7.99,15.2,0,22.1,8.56,22.1,20.86v46.49c0,.57-.46,1.03-1.03,1.03h-19.21Z"/>
      <path class="cls-1" d="m74.14,62.15c0-18.79,13.54-34.95,36.19-34.95s36.47,16.16,36.47,34.95-13.54,35.09-36.47,35.09-36.19-16.3-36.19-35.09Zm50.84,0c0-8.84-5.25-16.16-14.64-16.16s-14.37,7.32-14.37,16.16,5.25,16.3,14.37,16.3,14.64-7.32,14.64-16.3Z"/>
      <path class="cls-1" d="m239.65,95.58c-.57,0-1.03-.46-1.03-1.03v-39.58c0-5.11-2.49-8.98-8.84-8.98-4.19,0-7.52,1.95-9.83,4.07-1.41,1.3-2.19,3.13-2.19,5.04v39.45c0,.57-.46,1.03-1.03,1.03h-19.21c-.57,0-1.03-.46-1.03-1.03v-39.58c0-5.11-2.35-8.98-8.7-8.98-4.22,0-7.49,1.97-9.81,4.11-1.41,1.3-2.21,3.13-2.21,5.05v39.39c0,.57-.46,1.03-1.03,1.03h-19.21c-.57,0-1.03-.46-1.03-1.03V29.89c0-.57.46-1.03,1.03-1.03h19.21c.57,0,1.03.46,1.03,1.03v4.45c0,.9,1.08,1.38,1.73.75,3.86-3.65,11.35-7.9,20.23-7.9,9.67,0,16.16,4.01,18.92,11.88,3.87-5.8,12.57-11.88,23.07-11.88,12.29,0,20.03,6.35,20.03,20.03v47.32c0,.57-.46,1.03-1.03,1.03h-19.07Z"/>
      <path class="cls-1" d="m267.4,62.15c0-19.34,14.5-34.95,35.36-34.95,19.75,0,34.12,14.5,34.12,37.16v3.8c0,.57-.46,1.03-1.03,1.03h-45.08c-.72,0-1.22.72-.97,1.39,1.98,5.3,7.37,9.52,16.28,9.52,4.38,0,11.39-1.8,15.46-4.95.47-.36,1.15-.24,1.48.25l8.11,12.23c.29.44.2,1.03-.21,1.37-6.69,5.53-17.33,8.23-27.19,8.23-20.58,0-36.33-13.4-36.33-35.09Zm35.36-17.82c-8.43,0-12.16,4.58-13.39,9.06-.18.66.32,1.3,1,1.3h24.98c.66,0,1.16-.61,1.01-1.25-.99-4.39-4.65-9.11-13.6-9.11Z"/>
      <path class="cls-1" d="m344.52,94.55V1.03c0-.57.46-1.03,1.03-1.03h19.21c.57,0,1.03.46,1.03,1.03v32.96c0,.93,1.13,1.38,1.77.72,5.04-5.2,11.45-7.51,17.98-7.51,16.71,0,29.42,13.12,29.42,34.95s-12.99,35.09-29.42,35.09c-6.68,0-12.81-2.44-17.99-7.52-.66-.64-1.76-.19-1.76.73v4.1c0,.57-.46,1.03-1.03,1.03h-19.21c-.57,0-1.03-.46-1.03-1.03Zm33.98-16.1c8.43,0,14.78-6.22,14.78-16.3s-6.35-16.16-14.78-16.16c-3.29,0-7.08,1.29-9.92,3.36-1.76,1.28-2.79,3.35-2.79,5.53v14.78c0,2.2,1.04,4.3,2.84,5.57,2.84,2.01,6.6,3.21,9.87,3.21Z"/>
      <path class="cls-1" d="m462.47,94.55v-5.6c-4.14,4.97-12.16,8.29-20.72,8.29-10.22,0-22.93-7.05-22.93-21.96,0-16.16,12.71-21.55,22.93-21.55,7.72,0,14.7,2.21,19.01,6.08.66.59,1.71.11,1.71-.78v-4.06c0-5.8-4.97-9.81-13.54-9.81-6.24,0-12.49,2.33-17.69,6.41-.5.4-1.24.24-1.54-.33l-6.89-12.94c-.23-.43-.13-.97.25-1.28,8.49-6.93,19.64-9.82,29.61-9.82,16.02,0,31.08,5.94,31.08,26.66v40.69c0,.57-.46,1.03-1.03,1.03h-19.21c-.57,0-1.03-.46-1.03-1.03Zm0-19.04h0c0-2.57-1.46-4.92-3.78-6.02s-5.28-1.67-8.1-1.67c-5.53,0-10.64,2.49-10.64,7.74s5.11,7.74,10.64,7.74c2.95,0,6.01-.65,8.42-1.93,2.15-1.14,3.46-3.42,3.46-5.85Z"/>
      <path class="cls-1" d="m490.06,86.14l7.8-13.4c.31-.54,1.03-.68,1.52-.3,5.27,4.17,15.15,8.22,22.58,8.22,6.35,0,8.98-1.8,8.98-4.7,0-8.29-38.82.28-38.82-26.8,0-11.74,10.22-21.96,28.59-21.96,10.94,0,20.08,3.35,27.16,8.31.43.3.55.87.31,1.33l-7.09,13.11c-.31.57-1.07.72-1.57.3-4.19-3.51-11.25-6.47-18.67-6.47-4.97,0-8.29,1.93-8.29,4.56,0,7.32,38.68-.28,38.68,27.08,0,12.71-11.19,21.83-30.25,21.83-11.65,0-23.56-3.76-30.69-9.78-.39-.33-.49-.88-.23-1.32Z"/>
      <path class="cls-1" d="m554.4,62.15c0-19.34,14.5-34.95,35.36-34.95,19.75,0,34.12,14.5,34.12,37.16v3.8c0,.57-.46,1.03-1.03,1.03h-45.08c-.72,0-1.22.72-.97,1.39,1.98,5.3,7.37,9.52,16.28,9.52,4.38,0,11.39-1.8,15.46-4.95.47-.36,1.15-.24,1.48.25l8.11,12.23c.29.44.2,1.03-.21,1.37-6.69,5.53-17.33,8.23-27.19,8.23-20.58,0-36.33-13.4-36.33-35.09Zm35.36-17.82c-8.43,0-12.16,4.58-13.39,9.06-.18.66.32,1.3,1,1.3h24.98c.66,0,1.16-.61,1.01-1.25-.99-4.39-4.65-9.11-13.6-9.11Z"/>
    </g>
  </g>
</svg>