<?xml version="1.0" encoding="UTF-8"?>
<svg id="Layer_2" data-name="Layer 2" xmlns="http://www.w3.org/2000/svg" viewBox="0 0 97.68 140.51">
  <defs>
    <style>
      .cls-1 {
        fill: #7e3dd4;
        stroke-width: 0px;
      }
    </style>
  </defs>
  <g id="logo">
    <path class="cls-1" d="m67.92,140.51c-.84,0-1.52-.68-1.52-1.52v-55.55c0-11.98-6.3-15.84-16.25-15.84-6.7,0-11.76,2.73-15.42,5.94-2.2,1.93-3.46,4.7-3.46,7.62v57.82c0,.84-.68,1.52-1.52,1.52H1.52c-.84,0-1.52-.68-1.52-1.52V1.52C0,.68.68,0,1.52,0h28.24c.84,0,1.52.68,1.52,1.52v49.11c0,1.32,1.58,2.02,2.55,1.11,6.39-6.04,17.03-11.75,31.37-11.75,22.34,0,32.49,12.59,32.49,30.66v68.34c0,.84-.68,1.52-1.52,1.52h-28.24Z"/>
  </g>
</svg>